<svg width="42" height="59" viewBox="0 0 42 59" fill="none" xmlns="http://www.w3.org/2000/svg">
<path d="M21.625 3.74611C23.4472 3.74611 25.1951 4.44133 26.4844 5.67938C27.6941 6.84103 28.4071 8.39135 28.4915 10.0254L28.5 10.3533V13.7461H33.2618L35.9581 33.6599C36.1292 34.9248 35.7712 36.2077 34.9705 37.1818C34.2147 38.1012 33.1324 38.662 31.9725 38.7374L31.7036 38.7461H10.2964C9.03598 38.7461 7.84342 38.1719 7.02949 37.1818C6.28594 36.2773 5.92414 35.1065 6.01328 33.931L6.04189 33.6598L8.73816 13.7461H14.75V10.3533C14.75 6.70301 17.8293 3.74611 21.625 3.74611ZM31.0762 16.2461H28.5V21.2461H25.9078L25.9075 16.2461H17.3413L17.3422 21.2461H14.75V16.2461H10.9225L8.5193 33.9951C8.45827 34.4462 8.54353 34.9006 8.75217 35.2843L8.84908 35.4442L8.9607 35.5942C9.26107 35.9596 9.67122 36.1847 10.1079 36.2352L10.2964 36.2461H31.7036C32.2093 36.2461 32.696 36.0118 33.0393 35.5942C33.3562 35.2087 33.5205 34.7033 33.498 34.1885L33.4807 33.9953L31.0762 16.2461ZM21.625 6.24611C19.34 6.24611 17.4749 7.96144 17.349 10.1203L17.3422 10.3533L17.3413 13.7461H25.9075L25.9078 10.3533C25.9078 9.26511 25.4575 8.22121 24.6554 7.45098C23.8522 6.67971 22.762 6.24611 21.625 6.24611Z" fill="black" stroke="black" stroke-width="0.3" stroke-linecap="square" stroke-linejoin="round"/>
<path d="M6.858 58.216C5.622 58.216 4.554 57.946 3.654 57.406C2.766 56.854 2.076 56.092 1.584 55.12C1.092 54.136 0.846 52.996 0.846 51.7C0.846 50.416 1.092 49.288 1.584 48.316C2.076 47.332 2.766 46.564 3.654 46.012C4.554 45.46 5.622 45.184 6.858 45.184C8.298 45.184 9.468 45.532 10.368 46.228C11.28 46.912 11.862 47.872 12.114 49.108H10.44C10.248 48.328 9.852 47.704 9.252 47.236C8.664 46.756 7.866 46.516 6.858 46.516C5.958 46.516 5.172 46.726 4.5 47.146C3.828 47.554 3.306 48.148 2.934 48.928C2.574 49.696 2.394 50.62 2.394 51.7C2.394 52.78 2.574 53.71 2.934 54.49C3.306 55.258 3.828 55.852 4.5 56.272C5.172 56.68 5.958 56.884 6.858 56.884C7.866 56.884 8.664 56.656 9.252 56.2C9.852 55.732 10.248 55.114 10.44 54.346H12.114C11.862 55.558 11.28 56.506 10.368 57.19C9.468 57.874 8.298 58.216 6.858 58.216ZM17.1671 58.216C16.4231 58.216 15.8051 58.09 15.3131 57.838C14.8211 57.586 14.4551 57.25 14.2151 56.83C13.9751 56.41 13.8551 55.954 13.8551 55.462C13.8551 54.55 14.2031 53.848 14.8991 53.356C15.5951 52.864 16.5431 52.618 17.7431 52.618H20.1551V52.51C20.1551 51.73 19.9511 51.142 19.5431 50.746C19.1351 50.338 18.5891 50.134 17.9051 50.134C17.3171 50.134 16.8071 50.284 16.3751 50.584C15.9551 50.872 15.6911 51.298 15.5831 51.862H14.0351C14.0951 51.214 14.3111 50.668 14.6831 50.224C15.0671 49.78 15.5411 49.444 16.1051 49.216C16.6691 48.976 17.2691 48.856 17.9051 48.856C19.1531 48.856 20.0891 49.192 20.7131 49.864C21.3491 50.524 21.6671 51.406 21.6671 52.51V58H20.3171L20.2271 56.398C19.9751 56.902 19.6031 57.334 19.1111 57.694C18.6311 58.042 17.9831 58.216 17.1671 58.216ZM17.4011 56.938C17.9771 56.938 18.4691 56.788 18.8771 56.488C19.2971 56.188 19.6151 55.798 19.8311 55.318C20.0471 54.838 20.1551 54.334 20.1551 53.806V53.788H17.8691C16.9811 53.788 16.3511 53.944 15.9791 54.256C15.6191 54.556 15.4391 54.934 15.4391 55.39C15.4391 55.858 15.6071 56.236 15.9431 56.524C16.2911 56.8 16.7771 56.938 17.4011 56.938ZM23.9354 58V49.072H25.3034L25.4294 50.782C25.7054 50.194 26.1254 49.726 26.6894 49.378C27.2534 49.03 27.9494 48.856 28.7774 48.856V50.44H28.3634C27.8354 50.44 27.3494 50.536 26.9054 50.728C26.4614 50.908 26.1074 51.22 25.8434 51.664C25.5794 52.108 25.4474 52.72 25.4474 53.5V58H23.9354ZM34.0024 58C33.1864 58 32.5444 57.802 32.0764 57.406C31.6084 57.01 31.3744 56.296 31.3744 55.264V50.35H29.8264V49.072H31.3744L31.5724 46.93H32.8864V49.072H35.5144V50.35H32.8864V55.264C32.8864 55.828 33.0004 56.212 33.2284 56.416C33.4564 56.608 33.8584 56.704 34.4344 56.704H35.3704V58H34.0024Z" fill="black"/>
</svg>
