<svg width="48" height="63" viewBox="0 0 48 63" fill="none" xmlns="http://www.w3.org/2000/svg">
<path d="M26 25.4128C28.3011 25.4128 30.3845 26.3455 31.8925 27.8535C33.4006 29.3616 34.3333 31.4449 34.3333 33.7461V37.0794H7.66663V33.7461C7.66663 31.4449 8.59937 29.3616 10.1074 27.8535C11.6154 26.3455 13.6988 25.4128 16 25.4128H26ZM21.3825 5.41277C23.1245 5.41277 24.7091 6.09212 25.8784 7.19815C27.0391 8.29616 27.7912 9.81537 27.8747 11.5066L27.8825 13.1692C27.8825 14.9347 27.1545 16.5342 25.9828 17.693C24.8043 18.8586 23.177 19.5794 21.3825 19.5794C19.6404 19.5794 18.0558 18.9001 16.8866 17.7941C15.7258 16.6961 14.9738 15.1768 14.8903 13.4856L14.8825 11.823C14.8825 10.0575 15.6104 8.45803 16.7822 7.29916C17.9606 6.13366 19.588 5.41277 21.3825 5.41277Z" stroke="black" stroke-width="2"/>
<path d="M1.332 58V45.4H2.844V56.794H8.712V58H1.332ZM14.3803 58.216C13.5403 58.216 12.7843 58.024 12.1123 57.64C11.4403 57.256 10.9063 56.716 10.5103 56.02C10.1263 55.312 9.93431 54.484 9.93431 53.536C9.93431 52.588 10.1323 51.766 10.5283 51.07C10.9243 50.362 11.4583 49.816 12.1303 49.432C12.8143 49.048 13.5763 48.856 14.4163 48.856C15.2563 48.856 16.0123 49.048 16.6843 49.432C17.3563 49.816 17.8843 50.362 18.2683 51.07C18.6643 51.766 18.8623 52.588 18.8623 53.536C18.8623 54.484 18.6643 55.312 18.2683 56.02C17.8723 56.716 17.3323 57.256 16.6483 57.64C15.9763 58.024 15.2203 58.216 14.3803 58.216ZM14.3803 56.92C14.8963 56.92 15.3763 56.794 15.8203 56.542C16.2643 56.29 16.6243 55.912 16.9003 55.408C17.1763 54.904 17.3143 54.28 17.3143 53.536C17.3143 52.792 17.1763 52.168 16.9003 51.664C16.6363 51.16 16.2823 50.782 15.8383 50.53C15.3943 50.278 14.9203 50.152 14.4163 50.152C13.9003 50.152 13.4203 50.278 12.9763 50.53C12.5323 50.782 12.1723 51.16 11.8963 51.664C11.6203 52.168 11.4823 52.792 11.4823 53.536C11.4823 54.28 11.6203 54.904 11.8963 55.408C12.1723 55.912 12.5263 56.29 12.9583 56.542C13.4023 56.794 13.8763 56.92 14.3803 56.92ZM24.1059 55.192C23.6019 55.192 23.1399 55.126 22.7199 54.994L21.8199 55.84C21.9519 55.936 22.1139 56.02 22.3059 56.092C22.5099 56.152 22.7979 56.212 23.1699 56.272C23.5419 56.32 24.0639 56.374 24.7359 56.434C25.9359 56.518 26.7939 56.794 27.3099 57.262C27.8259 57.73 28.0839 58.342 28.0839 59.098C28.0839 59.614 27.9399 60.106 27.6519 60.574C27.3759 61.042 26.9439 61.426 26.3559 61.726C25.7799 62.026 25.0359 62.176 24.1239 62.176C23.3199 62.176 22.6059 62.068 21.9819 61.852C21.3579 61.648 20.8719 61.33 20.5239 60.898C20.1759 60.478 20.0019 59.944 20.0019 59.296C20.0019 58.96 20.0919 58.594 20.2719 58.198C20.4519 57.814 20.7879 57.448 21.2799 57.1C21.0159 56.992 20.7879 56.878 20.5959 56.758C20.4159 56.626 20.2479 56.482 20.0919 56.326V55.912L21.6219 54.4C20.9139 53.8 20.5599 53.008 20.5599 52.024C20.5599 51.436 20.6979 50.902 20.9739 50.422C21.2499 49.942 21.6519 49.564 22.1799 49.288C22.7079 49 23.3499 48.856 24.1059 48.856C24.6219 48.856 25.0899 48.928 25.5099 49.072H28.8039V50.206L27.1299 50.278C27.4779 50.782 27.6519 51.364 27.6519 52.024C27.6519 52.612 27.5079 53.146 27.2199 53.626C26.9439 54.106 26.5419 54.49 26.0139 54.778C25.4979 55.054 24.8619 55.192 24.1059 55.192ZM24.1059 53.95C24.7419 53.95 25.2459 53.788 25.6179 53.464C26.0019 53.128 26.1939 52.648 26.1939 52.024C26.1939 51.412 26.0019 50.944 25.6179 50.62C25.2459 50.284 24.7419 50.116 24.1059 50.116C23.4579 50.116 22.9419 50.284 22.5579 50.62C22.1859 50.944 21.9999 51.412 21.9999 52.024C21.9999 52.648 22.1859 53.128 22.5579 53.464C22.9419 53.788 23.4579 53.95 24.1059 53.95ZM21.4779 59.152C21.4779 59.752 21.7299 60.196 22.2339 60.484C22.7379 60.784 23.3679 60.934 24.1239 60.934C24.8679 60.934 25.4619 60.772 25.9059 60.448C26.3619 60.124 26.5899 59.692 26.5899 59.152C26.5899 58.768 26.4339 58.432 26.1219 58.144C25.8099 57.868 25.2339 57.706 24.3939 57.658C23.7339 57.61 23.1639 57.55 22.6839 57.478C22.1919 57.742 21.8679 58.024 21.7119 58.324C21.5559 58.636 21.4779 58.912 21.4779 59.152ZM36.1913 47.092C35.8913 47.092 35.6393 46.996 35.4353 46.804C35.2433 46.6 35.1473 46.348 35.1473 46.048C35.1473 45.76 35.2433 45.52 35.4353 45.328C35.6393 45.136 35.8913 45.04 36.1913 45.04C36.4793 45.04 36.7253 45.136 36.9293 45.328C37.1333 45.52 37.2353 45.76 37.2353 46.048C37.2353 46.348 37.1333 46.6 36.9293 46.804C36.7253 46.996 36.4793 47.092 36.1913 47.092ZM35.4353 58V49.072H36.9473V58H35.4353ZM39.5799 58V49.072H40.9479L41.0379 50.674C41.3259 50.11 41.7399 49.666 42.2799 49.342C42.8199 49.018 43.4319 48.856 44.1159 48.856C45.1719 48.856 46.0119 49.18 46.6359 49.828C47.2719 50.464 47.5899 51.448 47.5899 52.78V58H46.0779V52.942C46.0779 51.082 45.3099 50.152 43.7739 50.152C43.0059 50.152 42.3639 50.434 41.8479 50.998C41.3439 51.55 41.0919 52.342 41.0919 53.374V58H39.5799Z" fill="black"/>
</svg>
