<?xml version="1.0" standalone="no"?>
<!DOCTYPE svg PUBLIC "-//W3C//DTD SVG 20010904//EN"
 "http://www.w3.org/TR/2001/REC-SVG-20010904/DTD/svg10.dtd">
<svg version="1.0" xmlns="http://www.w3.org/2000/svg"
 width="1000.000000pt" height="850.000000pt" viewBox="0 0 1000.000000 850.000000"
 preserveAspectRatio="xMidYMid meet">

<g transform="translate(0.000000,850.000000) scale(0.100000,-0.100000)"
fill="#000000" stroke="none">
<path d="M4523 5593 c-9 -22 6 -30 67 -36 84 -9 115 -27 135 -81 15 -39 16
-87 13 -457 -5 -465 -13 -537 -74 -666 -43 -91 -80 -123 -141 -123 -35 0 -59
8 -96 32 -68 43 -110 43 -149 -1 -27 -30 -30 -39 -25 -78 9 -86 80 -129 196
-121 157 12 277 127 330 318 42 154 53 292 58 728 l5 412 239 0 239 0 0 -637
c-1 -574 -3 -643 -18 -688 -20 -59 -58 -83 -147 -92 -45 -5 -55 -9 -55 -25 0
-18 13 -18 328 -16 281 3 327 5 327 18 0 10 -16 17 -55 22 -91 13 -127 34
-147 87 -17 42 -18 94 -18 646 0 664 0 661 63 698 17 10 59 21 94 25 46 5 63
11 63 22 0 13 -77 16 -614 20 -472 4 -615 2 -618 -7z"/>
<path d="M3728 4880 c-24 -25 -29 -36 -23 -58 10 -41 34 -62 72 -62 70 0 101
86 47 129 -36 29 -60 26 -96 -9z"/>
<path d="M6176 4889 c-54 -43 -23 -129 47 -129 38 0 62 21 72 62 6 22 1 33
-23 58 -36 35 -60 38 -96 9z"/>
<path d="M9540 3690 c0 -30 7 -47 25 -65 22 -23 32 -25 115 -25 83 0 93 2 115
25 32 31 36 105 7 105 -13 0 -21 -11 -28 -37 l-9 -38 -85 0 -85 0 -9 38 c-7
26 -15 37 -28 37 -14 0 -18 -8 -18 -40z"/>
<path d="M2165 3595 c-51 -18 -110 -81 -124 -131 -14 -51 -14 -288 0 -339 15
-52 82 -119 134 -134 111 -31 219 11 268 102 20 38 22 55 22 202 0 147 -2 164
-22 202 -51 94 -169 136 -278 98z m171 -56 c70 -33 84 -75 84 -244 0 -120 -3
-145 -21 -181 -55 -115 -257 -112 -307 5 -20 48 -28 229 -13 303 7 31 21 68
31 81 45 58 148 74 226 36z"/>
<path d="M3007 3604 c-4 -4 -7 -144 -7 -311 0 -296 0 -303 20 -303 19 0 20 7
20 155 l0 155 175 0 175 0 0 -150 c0 -129 2 -152 16 -157 9 -3 20 0 25 8 11
18 11 580 0 598 -5 8 -16 11 -25 8 -13 -5 -16 -26 -16 -132 l0 -125 -175 0
-174 0 -3 127 c-3 117 -10 148 -31 127z"/>
<path d="M3985 3598 c-3 -7 -4 -146 -3 -308 3 -287 4 -295 23 -295 20 0 20 7
20 305 0 282 -1 305 -18 308 -9 2 -19 -3 -22 -10z"/>
<path d="M8875 3597 c-3 -7 -4 -145 -3 -307 3 -287 4 -295 23 -295 19 0 20 8
23 285 1 157 0 295 -3 308 -6 24 -32 30 -40 9z"/>
<path d="M9465 3598 c-3 -7 -4 -146 -3 -308 3 -266 5 -295 20 -298 12 -2 64
68 188 252 95 141 176 256 181 256 5 0 9 -112 9 -255 0 -248 1 -255 20 -255
20 0 20 7 20 304 0 305 -3 332 -34 306 -8 -6 -90 -123 -183 -261 l-168 -250
-5 258 c-5 235 -7 258 -23 261 -9 2 -19 -3 -22 -10z"/>
<path d="M223 3576 l-28 -24 -3 -243 c-2 -144 -7 -249 -13 -256 -6 -6 -23 -13
-37 -15 -19 -2 -27 -9 -27 -23 0 -42 93 -25 114 21 7 16 11 104 11 250 0 136
4 233 10 245 10 17 22 19 130 19 l120 0 2 -277 c3 -270 4 -278 23 -278 20 0
20 8 23 303 l2 302 -149 0 c-144 0 -151 -1 -178 -24z"/>
<path d="M1100 3295 l0 -305 213 2 c204 3 212 4 212 23 0 19 -8 20 -192 23
l-193 2 0 135 0 134 138 3 c129 3 137 4 137 23 0 19 -8 20 -137 23 l-138 3 0
94 0 95 193 2 c184 3 192 4 192 23 0 19 -8 20 -212 23 l-213 2 0 -305z"/>
<path d="M4655 3523 c-15 -176 -60 -415 -85 -464 -6 -10 -17 -19 -25 -19 -34
0 -60 -91 -36 -129 17 -27 41 -4 41 39 l0 40 199 0 200 0 3 -42 c2 -31 8 -44
20 -46 12 -2 19 6 24 34 9 47 -5 86 -34 99 l-22 10 0 277 0 278 -139 0 -139 0
-7 -77z m235 -228 l0 -255 -139 0 -140 0 14 34 c23 55 65 278 72 381 l6 95 94
0 93 0 0 -255z"/>
<path d="M6122 3298 l3 -303 110 -3 c133 -3 179 11 230 71 97 113 61 289 -70
348 -29 14 -65 19 -132 19 l-93 0 0 60 0 59 158 3 c149 3 157 4 157 23 0 19
-8 20 -183 23 l-182 2 2 -302z m262 68 c18 -7 44 -29 57 -47 20 -29 24 -46 24
-109 0 -63 -4 -80 -24 -109 -34 -47 -75 -61 -181 -61 l-90 0 0 170 0 170 90 0
c55 0 104 -6 124 -14z"/>
<path d="M7087 3313 c-59 -158 -107 -298 -107 -311 0 -17 5 -23 17 -20 12 2
29 35 54 103 l37 100 134 3 133 3 34 -95 c35 -100 53 -128 73 -108 8 8 -18 89
-99 309 -109 292 -111 298 -140 301 l-29 3 -107 -288z m191 74 c29 -74 52
-137 52 -140 0 -4 -50 -7 -111 -7 -61 0 -109 4 -107 8 2 5 26 68 53 140 28 73
53 132 56 132 3 0 29 -60 57 -133z"/>
<path d="M7962 3298 l3 -303 126 0 c120 0 127 1 167 27 63 42 96 107 96 188 0
81 -29 140 -92 184 -41 29 -50 31 -153 34 l-109 4 0 59 0 58 158 3 c149 3 157
4 157 23 0 19 -8 20 -178 23 l-177 2 2 -302z m269 60 c73 -41 100 -149 59
-232 -34 -69 -59 -81 -182 -84 l-108 -4 0 171 0 171 96 0 c80 0 103 -4 135
-22z"/>
</g>
</svg>
